<svg viewBox="0 0 24.766 24.766" xmlns="http://www.w3.org/2000/svg"><path d="m0 0h24.766v24.766h-24.766z" fill="none" opacity="0"/><g transform="translate(.258 .227)"><path d="m8 0a.78.78 0 0 0 -.77.774 6.461 6.461 0 0 1 -4.984 6.284l.279-.464a.775.775 0 1 0 -1.332-.794l-1.083 1.805a.769.769 0 0 0 -.01.774.756.756 0 0 0 .671.392 8.011 8.011 0 0 0 8-8 .764.764 0 0 0 -.771-.771z" transform="translate(15.472 15.478)"/><path d="m8 0a8.011 8.011 0 0 0 -8 8 .78.78 0 0 0 .774.774.78.78 0 0 0 .774-.774 6.461 6.461 0 0 1 4.984-6.287l-.279.464a.775.775 0 0 0 1.331.795l1.084-1.806a.779.779 0 0 0 -.668-1.166z"/></g><path d="m12.651 6.367a6.354 6.354 0 0 1 -5.335 6.284v-.021a7.994 7.994 0 0 0 -7.316-7.295 6.368 6.368 0 0 1 12.651 1.032z" transform="translate(9.535 2.58)"/><path d="m2.518.392a.438.438 0 0 0 -.392-.392h-2.126v.774h2.126a.377.377 0 0 0 .392-.382z" transform="translate(7.605 14.261)"/><path d="m2.538 0h-2.538v.774h2.549c.33 0 .557-.206.557-.392s-.237-.382-.568-.382z" transform="translate(7.605 16.593)"/><path d="m12.723 5.882a6.371 6.371 0 0 0 -5.861-5.861c-.162-.011-.32-.021-.495-.021a6.372 6.372 0 1 0 6.377 6.377c0-.177-.01-.33-.021-.495zm-5.159 3.591h-.681v.392a.774.774 0 1 1 -1.548 0v-.392h-1.084a.78.78 0 0 1 -.773-.773v-4.645a.78.78 0 0 1 .774-.774h1.083v-.392a.774.774 0 0 1 1.548 0v.392h.268a1.993 1.993 0 0 1 1.94 1.94 1.914 1.914 0 0 1 -.2.836 1.848 1.848 0 0 1 .774 1.486 2.023 2.023 0 0 1 -2.101 1.93z" transform="translate(2.58 9.442)"/></svg>