<svg viewBox="0 0 24.766 24.766" xmlns="http://www.w3.org/2000/svg"><path d="m0 0h24.766v24.766h-24.766z" fill="none" opacity="0"/><path d="m19.348 1.548h-18.574a.78.78 0 0 1 -.774-.774.78.78 0 0 1 .774-.774h18.574a.78.78 0 0 1 .774.774.78.78 0 0 1 -.774.774z" transform="translate(2.322 21.928)"/><path d="m2.683 0h-1.651a1.035 1.035 0 0 0 -1.032 1.032v8.895a1.035 1.035 0 0 0 1.032 1.032h1.651a1.035 1.035 0 0 0 1.032-1.032v-8.895a1.028 1.028 0 0 0 -1.032-1.032z" transform="translate(3.096 8.647)"/><path d="m2.683 0h-1.651a1.035 1.035 0 0 0 -1.032 1.032v12.187a1.035 1.035 0 0 0 1.032 1.032h1.651a1.035 1.035 0 0 0 1.032-1.032v-12.187a1.035 1.035 0 0 0 -1.032-1.032z" transform="translate(10.525 5.356)"/><path d="m2.683 0h-1.651a1.035 1.035 0 0 0 -1.032 1.032v15.478a1.035 1.035 0 0 0 1.032 1.032h1.651a1.035 1.035 0 0 0 1.032-1.032v-15.478a1.035 1.035 0 0 0 -1.032-1.032z" transform="translate(17.955 2.064)"/></svg>