<svg height="24.766" viewBox="0 0 24.766 24.766" width="24.766" xmlns="http://www.w3.org/2000/svg"><path d="m19.837 14.374c-.165-.279-.629-.712-1.785-.506a8.73 8.73 0 0 1 -1.94.134 8.678 8.678 0 0 1 -6.1-2.91 8.325 8.325 0 0 1 -1.484-8.936c.454-1.042.134-1.589-.093-1.816s-.795-.568-1.889-.114a10.647 10.647 0 0 0 -6.521 10.536 10.81 10.81 0 0 0 7.265 9.277 10.32 10.32 0 0 0 2.982.568c.165.01.33.021.5.021a10.836 10.836 0 0 0 8.74-4.406c.688-.961.501-1.57.325-1.848z" fill="#5f6672" transform="translate(2.38 2.064)"/><path d="m0 0h24.766v24.766h-24.766z" fill="none" opacity="0" transform="matrix(-1 0 0 -1 24.766 24.766)"/></svg>