<svg viewBox="0 0 24.766 24.766" xmlns="http://www.w3.org/2000/svg"><path d="m9.555 5.107a7.2 7.2 0 0 0 -4.767-4.767c-1.7-.5-2.879-.454-3.694.155a3.6 3.6 0 0 0 -1.094 2.992v2.57c0 2.543 1.156 3.828 3.426 3.828h2.961a3.606 3.606 0 0 0 2.993-1.094c.629-.805.681-1.981.175-3.684z" transform="translate(12.806 2.064)"/><path d="m17.447 8.886a1.412 1.412 0 0 0 -1.063-.486h-3.694a3.294 3.294 0 0 1 -3.29-3.291v-3.694a1.412 1.412 0 0 0 -.487-1.063 1.4 1.4 0 0 0 -1.1-.341 9.012 9.012 0 0 0 -6.113 3.643 8.908 8.908 0 0 0 5.531 13.982 8.654 8.654 0 0 0 1.7.165 8.77 8.77 0 0 0 5.211-1.7 9.012 9.012 0 0 0 3.645-6.111 1.387 1.387 0 0 0 -.34-1.104z" transform="translate(2.066 4.9)"/><path d="m0 0h24.766v24.766h-24.766z" fill="none" opacity="0" transform="matrix(-1 0 0 -1 24.766 24.766)"/></svg>