<svg viewBox="0 0 24.766 24.766" xmlns="http://www.w3.org/2000/svg"><path d="m8.049 0h-2.683a4.986 4.986 0 0 0 -5.366 5.366v4.179h6.449a.774.774 0 0 1 0 1.548h-6.449v4.179a4.986 4.986 0 0 0 5.366 5.366h2.672a4.986 4.986 0 0 0 5.362-5.366v-9.906a4.973 4.973 0 0 0 -5.351-5.366z" fill="#fa6b82" transform="matrix(-1 0 0 -1 15.479 22.702)"/><path d="m2.639 3.454 2.136-2.136a.765.765 0 0 0 .225-.547.749.749 0 0 0 -.225-.547.779.779 0 0 0 -1.094 0l-3.457 3.457a.779.779 0 0 0 0 1.094l3.457 3.457a.773.773 0 1 0 1.094-1.094l-2.136-2.138h4.582v-1.546z" fill="#fa6b82" transform="matrix(-1 0 0 -1 22.7 16.611)"/><path d="m0 0h24.766v24.766h-24.766z" fill="none" opacity="0"/></svg>