<svg width="11" height="10" viewBox="0 0 11 10" fill="none" xmlns="http://www.w3.org/2000/svg">
<path d="M9.89999 0.769225H8.43332V0.38461C8.43332 0.247161 8.36343 0.120192 8.24999 0.051511C8.13655 -0.0171703 7.99676 -0.0171703 7.88333 0.051511C7.76989 0.120192 7.69999 0.247166 7.69999 0.38461V0.769225H3.3V0.38461C3.3 0.247161 3.2301 0.120192 3.11666 0.051511C3.00323 -0.0171703 2.86343 -0.0171703 2.75 0.051511C2.63656 0.120192 2.56666 0.247166 2.56666 0.38461V0.769225H1.1C0.808216 0.769225 0.528481 0.89079 0.322143 1.10714C0.115892 1.32357 0 1.61701 0 1.92307V8.84615C0 9.15221 0.115892 9.44564 0.322143 9.66208C0.528475 9.87843 0.808216 9.99999 1.1 9.99999H7.33333C7.4308 10.0006 7.52443 9.96042 7.59368 9.88847L10.8937 6.42693C10.9623 6.3543 11.0006 6.25609 11 6.15384V1.92307C11 1.617 10.8841 1.32357 10.6779 1.10713C10.4715 0.890786 10.1918 0.769225 9.89999 0.769225ZM1.1 9.23076C1.00277 9.23076 0.909462 9.19024 0.840714 9.11812C0.771965 9.04601 0.733333 8.94814 0.733333 8.84615V1.92307C0.733333 1.82108 0.771965 1.72321 0.840714 1.65109C0.909462 1.57898 1.00277 1.53846 1.1 1.53846H2.56666V1.92307C2.56666 2.06052 2.63656 2.18749 2.75 2.25617C2.86344 2.32485 3.00323 2.32485 3.11666 2.25617C3.2301 2.18749 3.3 2.06051 3.3 1.92307V1.53846H7.69999V1.92307C7.69999 2.06052 7.76989 2.18749 7.88333 2.25617C7.99676 2.32485 8.13656 2.32485 8.24999 2.25617C8.36343 2.18749 8.43332 2.06051 8.43332 1.92307V1.53846H9.89999C9.99722 1.53846 10.0905 1.57898 10.1593 1.65109C10.228 1.72321 10.2667 1.82108 10.2667 1.92307V5.76922H8.06666C7.77488 5.76922 7.49514 5.89079 7.2888 6.10714C7.08255 6.32357 6.96666 6.617 6.96666 6.92307V9.23076H1.1ZM9.74955 6.53846L7.69991 8.68843V6.92307C7.69991 6.82108 7.73854 6.72321 7.80729 6.65109C7.87604 6.57898 7.96934 6.53846 8.06658 6.53846H9.74955ZM9.22526 3.84615H1.7746C1.64365 3.84615 1.52261 3.77283 1.45705 3.65384C1.39157 3.53485 1.39157 3.38821 1.45705 3.26922C1.52261 3.15023 1.64365 3.07692 1.7746 3.07692H9.22526C9.35621 3.07692 9.47726 3.15023 9.54282 3.26922C9.60829 3.38822 9.60829 3.53485 9.54282 3.65384C9.47726 3.77283 9.35621 3.84615 9.22526 3.84615Z" fill="#B1B1B1"/>
</svg>
