<svg width="11" height="11" viewBox="0 0 11 11" fill="none" xmlns="http://www.w3.org/2000/svg">
<path d="M5.5 11C6.95865 11 8.35762 10.4205 9.38912 9.38912C10.4205 8.35762 11 6.95872 11 5.5C11 4.04128 10.4205 2.64238 9.38912 1.61088C8.35762 0.579456 6.95872 0 5.5 0C4.04128 0 2.64238 0.579456 1.61088 1.61088C0.579456 2.64238 0 4.04128 0 5.5C0.00169335 6.95813 0.581667 8.3561 1.61274 9.38717C2.64381 10.4182 4.04184 10.9982 5.49991 10.9999L5.5 11ZM5.5 0.568965C6.80778 0.568965 8.06197 1.08849 8.98684 2.01323C9.91157 2.93796 10.4311 4.1922 10.4311 5.50006C10.4311 6.80793 9.91157 8.06204 8.98684 8.9869C8.0621 9.91164 6.80786 10.4312 5.5 10.4312C4.19214 10.4312 2.93803 9.91164 2.01316 8.9869C1.08843 8.06217 0.568901 6.80793 0.568901 5.50006C0.57034 4.19272 1.09038 2.9394 2.01477 2.01496C2.93924 1.09057 4.19266 0.570526 5.49987 0.569096L5.5 0.568965Z" fill="#B1B1B1"/>
<path d="M3.51683 7.84434C3.59236 7.84451 3.66475 7.81446 3.718 7.76103L5.70125 5.77769C5.75459 5.72435 5.78457 5.65205 5.78457 5.57661V2.64703C5.78457 2.48989 5.65723 2.36255 5.50008 2.36255C5.34294 2.36255 5.2156 2.48989 5.2156 2.64703V5.4587L3.31575 7.35872C3.23439 7.44008 3.21009 7.56243 3.25403 7.66869C3.29806 7.77503 3.40178 7.84429 3.51684 7.84429L3.51683 7.84434Z" fill="#B1B1B1"/>
</svg>
