<svg width="10" height="10" viewBox="0 0 10 10" fill="none" xmlns="http://www.w3.org/2000/svg">
<path d="M5.71428 4.99703C5.71419 5.09932 5.67117 5.19748 5.59477 5.26987L0.705532 9.87713C0.630138 9.95375 0.525186 9.99813 0.414599 9.99994C0.304099 10.0018 0.197512 9.96099 0.119382 9.88696C0.0411678 9.81284 -0.0018482 9.71184 6.09241e-05 9.60712C0.00206171 9.50233 0.0488088 9.40287 0.129658 9.33143L4.72555 4.97127L0.097063 0.585288C0.0328556 0.484285 0.0208514 0.360872 0.0645961 0.250472C0.108341 0.139989 0.203015 0.0545835 0.321514 0.018466C0.440016 -0.0175572 0.569515 -0.000321413 0.672934 0.0653476L5.58942 4.72424L5.58933 4.72424C5.66781 4.79568 5.71274 4.89393 5.71429 4.99708L5.71428 4.99703Z" fill="#191D28"/>
<path d="M10.0004 4.99703C10.0003 5.09932 9.9573 5.19748 9.88091 5.26987L4.99166 9.87713C4.91627 9.95375 4.81132 9.99813 4.70073 9.99994C4.59023 10.0018 4.48364 9.96099 4.40551 9.88696C4.3273 9.81284 4.28428 9.71184 4.28619 9.60712C4.28819 9.50233 4.33494 9.40287 4.41579 9.33143L9.01168 4.97127L4.3832 0.585288C4.31899 0.484285 4.30698 0.360872 4.35073 0.250472C4.39447 0.139989 4.48915 0.0545835 4.60765 0.018466C4.72615 -0.0175572 4.85565 -0.000321413 4.95907 0.0653476L9.87555 4.72424L9.87546 4.72424C9.95395 4.79568 9.99887 4.89393 10.0004 4.99708L10.0004 4.99703Z" fill="#191D28"/>
</svg>
