<svg height="19.575" viewBox="0 0 19.575 19.575" width="19.575" xmlns="http://www.w3.org/2000/svg"><g fill="#afb3bd" stroke="#afb3bd" stroke-linejoin="round" stroke-width=".5" transform="translate(.25 .25)"><path d="m.79 7.166h5.77a.8.8 0 0 0 .74-.856v-5.52a.79.79 0 0 0 -1.581 0v3.728l-4.033-4.057a.787.787 0 0 0 -1.106 0 .836.836 0 0 0 0 1.146l3.952 3.979h-3.742a.79.79 0 1 0 0 1.581z"/><path d="m.79 255.151h3.663l-3.992 3.991a.8.8 0 0 0 0 1.12.78.78 0 0 0 .553.237.824.824 0 0 0 .553-.224l4.018-4.018v3.82a.79.79 0 1 0 1.581 0v-5.691a.793.793 0 0 0 -.777-.8h-5.599a.793.793 0 0 0 -.79.79.782.782 0 0 0 .79.775z" transform="translate(0 -241.793)"/><path d="m260.6 262.59a.793.793 0 0 0 -.79-.79h-5.651a.809.809 0 0 0 -.856.738v5.362a.79.79 0 1 0 1.581 0v-3.6l3.978 3.939a.817.817 0 0 0 .58.237.788.788 0 0 0 .566-.237.76.76 0 0 0 0-1.093l-3.794-3.768h3.6a.793.793 0 0 0 .786-.788z" transform="translate(-241.523 -249.628)"/><path d="m259.808 5.849h-3.82l4-4a.8.8 0 0 0 0-1.12.836.836 0 0 0 -1.146 0l-3.965 3.939v-3.878a.79.79 0 1 0 -1.581 0v5.849a.852.852 0 0 0 .856.79h5.651a.79.79 0 0 0 0-1.581z" transform="translate(-241.523)"/></g></svg>