<svg height="23" viewBox="0 0 23 23" width="23" xmlns="http://www.w3.org/2000/svg"><path d="m22.4 9.989a1.064 1.064 0 1 1 -2.128 0v-3.107l-5.942 5.944 5.944 5.944v-3.106a1.064 1.064 0 1 1 2.128 0v5.675a1.069 1.069 0 0 1 -.085.411 1.11 1.11 0 0 1 -.582.582 1.018 1.018 0 0 1 -.411.085h-5.675a1.064 1.064 0 0 1 0-2.128h3.107l-5.93-5.959-5.944 5.944h3.107a1.064 1.064 0 1 1 0 2.128h-5.675a1.018 1.018 0 0 1 -.411-.085 1.11 1.11 0 0 1 -.582-.582 1.231 1.231 0 0 1 -.071-.4v-5.671a1.064 1.064 0 0 1 2.128 0v3.107l5.944-5.944-5.944-5.945v3.107a1.064 1.064 0 1 1 -2.128 0v-5.675a1.069 1.069 0 0 1 .085-.414 1.11 1.11 0 0 1 .582-.582 1.231 1.231 0 0 1 .4-.071h5.672a1.064 1.064 0 1 1 0 2.128h-3.107l5.944 5.944 5.944-5.944h-3.106a1.064 1.064 0 0 1 0-2.128h5.675a1.069 1.069 0 0 1 .411.085 1.11 1.11 0 0 1 .582.582 1.231 1.231 0 0 1 .071.4z" fill="#afb3bd" transform="translate(-1.321 -1.333)"/><path d="m0 0h23v23h-23z" fill="none" opacity="0" transform="matrix(-1 0 0 -1 23 23)"/></svg>