<svg width="31" height="30" viewBox="0 0 31 30" fill="none" xmlns="http://www.w3.org/2000/svg">
<circle cx="15.4443" cy="14.999" r="14.999" fill="#00B900"/>
<path d="M22.0659 13.8125C22.0656 13.9442 22.0135 14.0704 21.9211 14.1634C21.8287 14.2564 21.7034 14.3086 21.5728 14.3086H20.2022V15.195H21.5728C21.6391 15.1921 21.7054 15.2028 21.7676 15.2264C21.8298 15.2499 21.8866 15.286 21.9346 15.3323C21.9826 15.3786 22.0208 15.4342 22.0468 15.4958C22.0729 15.5574 22.0864 15.6237 22.0864 15.6907C22.0864 15.7576 22.0729 15.8239 22.0468 15.8855C22.0208 15.9471 21.9826 16.0027 21.9346 16.049C21.8866 16.0954 21.8298 16.1314 21.7676 16.155C21.7054 16.1786 21.6391 16.1892 21.5728 16.1863H19.7101C19.5803 16.1853 19.4561 16.1328 19.3645 16.0401C19.2729 15.9474 19.2212 15.822 19.2207 15.6911V11.9339C19.2207 11.6627 19.441 11.4378 19.7129 11.4378H21.5765C21.707 11.4382 21.8321 11.4908 21.9241 11.5841C22.0161 11.6774 22.0676 11.8038 22.0673 11.9354C22.0669 12.0669 22.0147 12.193 21.9221 12.2857C21.8296 12.3785 21.7042 12.4304 21.5737 12.43H20.2032V13.3164H21.5737C21.8465 13.3164 22.0659 13.5404 22.0659 13.8125ZM18.2242 16.1608C18.1739 16.1768 18.1214 16.1848 18.0686 16.1844C17.9915 16.1861 17.915 16.1692 17.8457 16.135C17.7764 16.1008 17.7162 16.0503 17.6702 15.9879L15.7616 13.376V15.6911C15.7522 15.8159 15.6964 15.9324 15.6054 16.0175C15.5144 16.1025 15.3949 16.1498 15.2708 16.1498C15.1467 16.1498 15.0272 16.1025 14.9362 16.0175C14.8452 15.9324 14.7895 15.8159 14.7801 15.6911V11.9339C14.7798 11.8033 14.831 11.6778 14.9224 11.5852C15.0138 11.4925 15.1379 11.4402 15.2676 11.4397C15.4194 11.4397 15.56 11.521 15.6538 11.6391L17.5774 14.2614V11.9339C17.5774 11.6627 17.7977 11.4378 18.0696 11.4378C18.3386 11.4378 18.5617 11.6627 18.5617 11.9339V15.6911C18.5616 15.7953 18.5289 15.8967 18.4683 15.981C18.4077 16.0653 18.3223 16.1282 18.2242 16.1608ZM13.5839 16.1863C13.4539 16.1856 13.3295 16.1331 13.2377 16.0404C13.1459 15.9477 13.0941 15.8222 13.0936 15.6911V11.9339C13.0936 11.6627 13.3149 11.4378 13.5858 11.4378C13.8567 11.4378 14.077 11.6627 14.077 11.9339V15.6911C14.0763 15.8226 14.024 15.9484 13.9316 16.0411C13.8393 16.1339 13.7143 16.1861 13.5839 16.1863ZM12.1496 16.1863H10.2869C10.1568 16.1856 10.0322 16.1332 9.94007 16.0405C9.84796 15.9478 9.79577 15.8223 9.79478 15.6911V11.9339C9.80554 11.8098 9.86205 11.6943 9.95315 11.6101C10.0443 11.526 10.1634 11.4793 10.2869 11.4793C10.4105 11.4793 10.5296 11.526 10.6207 11.6101C10.7118 11.6943 10.7683 11.8098 10.7791 11.9339V15.1941H12.1515C12.282 15.1941 12.4072 15.2464 12.4995 15.3394C12.5918 15.4324 12.6437 15.5586 12.6437 15.6902C12.6437 15.8218 12.5918 15.948 12.4995 16.041C12.4072 16.134 12.282 16.1863 12.1515 16.1863H12.1496ZM15.8197 5.99951C10.6516 5.99951 6.44531 9.44204 6.44531 13.6708C6.44531 17.4601 9.78072 20.6343 14.2851 21.2372C14.5898 21.3014 15.006 21.4404 15.111 21.7021C15.2047 21.9384 15.1729 22.305 15.141 22.5526L15.0126 23.3558C14.9779 23.5921 14.8251 24.2894 15.8319 23.8633C16.8406 23.439 21.2353 20.6522 23.2039 18.3711C24.5501 16.8828 25.1941 15.3595 25.1941 13.6708C25.1941 9.44204 20.9869 5.99951 15.8197 5.99951Z" fill="white"/>
</svg>
