<svg height="21.892" viewBox="0 0 21.892 21.892" width="21.892" xmlns="http://www.w3.org/2000/svg"><path d="m10.946 0a10.946 10.946 0 1 1 -10.946 10.946 10.946 10.946 0 0 1 10.946-10.946z" fill="#9da1ac"/><g fill="#fff" stroke="#fff" stroke-width=".25"><path d="m104.833 45.862a.531.531 0 0 0 .529.529h7.5a.529.529 0 1 0 0-1.059h-7.5a.531.531 0 0 0 -.529.53z" transform="translate(-96.707 -38.864)"/><path d="m105.362 173.892h7.5a.529.529 0 0 0 0-1.059h-7.5a.529.529 0 0 0 0 1.059z" transform="translate(-96.707 -162.393)"/><path d="m105.362 301.392h7.5a.529.529 0 0 0 0-1.059h-7.5a.529.529 0 0 0 0 1.059z" transform="translate(-96.707 -285.922)"/><path d="m.529 46.392h.882a.529.529 0 0 0 0-1.059h-.882a.529.529 0 0 0 0 1.059z" transform="translate(4.861 -38.864)"/><path d="m.529 173.892h.882a.529.529 0 0 0 0-1.059h-.882a.529.529 0 0 0 0 1.059z" transform="translate(4.861 -162.393)"/><path d="m.529 301.392h.882a.529.529 0 0 0 0-1.059h-.882a.529.529 0 0 0 0 1.059z" transform="translate(4.861 -285.922)"/></g></svg>