<svg width="20" height="20" viewBox="0 0 28 28" fill="none" xmlns="http://www.w3.org/2000/svg">
<path d="M19.4833 12.9084C20.7397 12.9084 21.7583 11.8898 21.7583 10.6334C21.7583 9.37695 20.7397 8.3584 19.4833 8.3584C18.2268 8.3584 17.2083 9.37695 17.2083 10.6334C17.2083 11.8898 18.2268 12.9084 19.4833 12.9084Z" stroke="#ABAAB0" stroke-linecap="round" stroke-linejoin="round"></path>
<path d="M11.9 13.8998C11.454 12.4542 11.5111 10.9 12.062 9.491C12.6129 8.08198 13.6251 6.90125 14.9333 6.14148C16.2494 5.38465 17.7862 5.10485 19.2845 5.34926C20.7828 5.59367 22.151 6.34733 23.1583 7.48314C24.1619 8.60803 24.7504 10.0424 24.826 11.548C24.9016 13.0536 24.4597 14.5398 23.5739 15.7595C22.688 16.9793 21.4115 17.8592 19.9564 18.2531C18.5013 18.647 16.9552 18.5311 15.575 17.9248" stroke="#ABAAB0" stroke-linecap="round" stroke-linejoin="round"></path>
<path d="M11.8999 13.8999L3.20825 23.5832V26.7332H6.76659L7.17492 24.2832L10.9666 24.0499L11.2583 20.8416L14.4666 20.7832L15.5166 17.9832" stroke="#ABAAB0"></path>
</svg>