<svg width="31" height="30" viewBox="0 0 31 30" fill="none" xmlns="http://www.w3.org/2000/svg">
<circle cx="15.4424" cy="14.999" r="14.999" fill="#1DA1F2"/>
<path d="M23.6323 10.4994C23.0549 10.7619 22.4324 10.9344 21.7875 11.0169C22.4474 10.6194 22.9574 9.98945 23.1974 9.232C22.5749 9.60697 21.885 9.86946 21.1575 10.0194C20.565 9.37449 19.7326 8.99951 18.7877 8.99951C17.0253 8.99951 15.5854 10.4394 15.5854 12.2168C15.5854 12.4718 15.6154 12.7193 15.6679 12.9518C12.998 12.8168 10.6207 11.5343 9.03829 9.59197C8.76081 10.0644 8.60332 10.6194 8.60332 11.2044C8.60332 12.3218 9.16578 13.3117 10.0357 13.8742C9.50326 13.8742 9.00829 13.7242 8.57332 13.4992V13.5217C8.57332 15.0816 9.68325 16.3865 11.1532 16.679C10.6812 16.8082 10.1858 16.8261 9.70574 16.7315C9.90944 17.3708 10.3084 17.9302 10.8464 18.3311C11.3845 18.732 12.0347 18.9541 12.7055 18.9664C11.5683 19.8666 10.1587 20.3533 8.70831 20.3463C8.45333 20.3463 8.19834 20.3313 7.94336 20.3013C9.36827 21.2162 11.0632 21.7487 12.878 21.7487C18.7877 21.7487 22.0349 16.844 22.0349 12.5918C22.0349 12.4493 22.0349 12.3143 22.0274 12.1718C22.6574 11.7218 23.1974 11.1519 23.6323 10.4994Z" fill="white"/>
</svg>
